<?xml version="1.0" encoding="UTF-8"?>
<svg width="66px" height="51px" viewBox="0 0 66 51" version="1.1" xmlns="http://www.w3.org/2000/svg" xmlns:xlink="http://www.w3.org/1999/xlink">
    <!-- Generator: Sketch 52.1 (67048) - http://www.bohemiancoding.com/sketch -->
    <title>Shape</title>
    <desc>Created with Sketch.</desc>
    <g id="Page-1" stroke="none" stroke-width="1" fill="none" fill-rule="evenodd">
        <g id="noun_paper-plane_339245" transform="translate(-17.000000, 0.000000)" fill="#037E8B" fill-rule="nonzero">
            <g id="Group" transform="translate(17.000000, 0.000000)">
                <path d="M48.3374361,40.3287811 L27.4386861,29.0000311 L60.3561861,6.2825311 L48.3374361,40.3287811 Z M25.9911861,44.4987811 L25.9274361,32.4462811 L33.6074361,36.6087811 L25.9911861,44.4987811 Z M53.9399361,6.1587811 L23.9136861,26.8775311 L7.0349361,17.7687811 L53.9399361,6.1587811 Z M64.9086861,0.7287811 C64.4624361,0.1625311 63.7274361,-0.1224689 63.0036861,0.0500311 L1.4249361,15.2937811 C0.6749361,15.4812811 0.1161861,16.1112811 0.0149361,16.8800311 C-0.0825639,17.6487811 0.3036861,18.3950311 0.9861861,18.7662811 L22.1661861,30.1962811 L22.2636861,49.1300311 C22.2674361,49.8912811 22.7324361,50.5737811 23.4374361,50.8587811 C23.6661861,50.9487811 23.9024361,50.9937811 24.1386861,50.9937811 C24.6374361,50.9937811 25.1286861,50.7950311 25.4849361,50.4200311 L37.0311861,38.4650311 L48.4799361,44.6712811 C48.7574361,44.8212811 49.0649361,44.9000311 49.3724361,44.9000311 C49.6011861,44.9000311 49.8299361,44.8587811 50.0474361,44.7762811 C50.5611861,44.5775311 50.9586861,44.1650311 51.1424361,43.6475311 L65.5574361,2.8212811 C65.8349361,2.0375311 65.5386861,1.2087811 64.9086861,0.7287811 Z" id="Shape"></path>
            </g>
        </g>
    </g>
</svg>